<svg width="24" height="28" viewBox="0 0 24 28" fill="none" xmlns="http://www.w3.org/2000/svg">
<path d="M22.0183 0.904207C21.184 0.202533 17.1385 -0.163947 12.6671 3.66621C12.3847 3.90755 11.9545 4.25169 11.4678 4.68967C10.102 3.06144 8.19762 2.01203 6.12304 1.74443C1.90806 1.26175 1.34316 5.92766 1.0781 7.92095C0.504834 12.3374 1.03884 16.8312 2.62938 20.9757C3.22904 22.4908 5.506 27.4472 9.52978 27.7377H9.82961C12.8713 27.7377 14.9267 24.3678 16.4519 21.8874C16.591 21.655 16.7257 21.436 16.856 21.2304C19.1626 17.5398 20.9407 13.527 22.1356 9.31536C22.1964 9.09637 22.266 8.86844 22.3442 8.60922C23.0525 6.24051 24.1258 2.65616 22.0183 0.904207ZM11.0724 25.7846C8.76935 26.6785 6.83567 24.8148 5.88839 23.6259C4.15025 21.4673 3.05088 18.3254 2.5729 14.2852C2.36969 12.568 2.33329 10.8343 2.46426 9.10978L2.49902 8.66285C2.60331 7.18799 2.73367 5.35113 3.5028 4.19359C3.74288 3.83408 4.06883 3.54413 4.44932 3.35159C4.82981 3.15905 5.25205 3.0704 5.67547 3.09415C7.15723 3.09415 8.69548 4.01929 8.95185 4.17571C9.55099 4.55222 10.0952 5.01417 10.5683 5.54777C8.76066 7.37123 7.8829 8.89972 7.96112 10.0885C7.98168 10.3968 8.07072 10.6961 8.22139 10.9634C8.37205 11.2307 8.58032 11.4589 8.83018 11.6304C9.75574 12.3098 11.0767 12.0774 11.8719 11.483C13.3363 10.3925 13.9838 9.18128 13.3363 7.01369C13.1527 6.54556 12.9134 6.1027 12.6237 5.69526C12.9421 5.40141 13.2758 5.1254 13.6231 4.86845C15.3569 3.46063 19.3024 1.14108 20.9233 2.03493C21.5533 2.37906 21.7923 3.21035 21.7098 4.5109C21.1318 11.474 16.9733 18.3969 14.5486 21.9008L14.1532 22.4863C13.3624 23.6796 12.2413 25.3377 11.0724 25.7846ZM10.2555 10.8662C10.2013 10.8924 10.1399 10.8982 10.0819 10.8827C10.024 10.8672 9.97316 10.8313 9.93824 10.7813C9.78953 10.5358 9.69393 10.2602 9.65794 9.97336C9.62195 9.68648 9.64641 9.395 9.72967 9.11871C10.0425 7.62151 11.2027 6.39246 11.4678 6.54889C11.5891 6.81939 11.6907 7.09874 11.772 7.38464C12.4107 9.69525 10.8073 10.6249 10.2555 10.8662Z" fill="#005EEC"/>
</svg>
