<svg width="103" height="8" viewBox="0 0 103 8" fill="none" xmlns="http://www.w3.org/2000/svg">
<mask id="mask0" mask-type="alpha" maskUnits="userSpaceOnUse" x="0" y="0" width="103" height="8">
<rect x="0.955811" y="0.00769043" width="101.56" height="7.82609" fill="#C4C4C4"/>
</mask>
<g mask="url(#mask0)">
<path d="M93.5949 5.3914L95.7622 4.72826L94.2064 3.77821L95.4533 2.83801C94.1129 2.8387 93.6149 3.34963 94.3499 4.1571C95.0849 4.96457 103.83 0.459378 95.7637 1.92958C100.183 1.96632 92.7754 5.92419 93.6789 5.34302C94.5824 4.76186 99.3439 5.63455 99.3439 5.63455C99.3439 5.63455 101.755 5.74836 101.736 3.48337C101.473 2.51113 101.158 2.23363 100.359 1.61385C99.5604 0.994067 98.4068 1.00528 97.4039 0.995794C66.8223 1.25208 36.0423 -0.847256 5.82584 2.49728C0.106933 3.14399 0.115589 7.57658 5.90584 6.93048C36.1223 3.58594 66.9907 5.59686 97.3943 5.37472L97.4027 3.34208C96.4287 4.58125 94.6287 3.77038 97.3841 4.18299L94.9339 3.77783L94.2064 3.77821C94.174 2.89047 92.8683 4.51416 92.3577 3.77917C91.8471 3.04417 92.151 4.64439 91.3271 4.29952C90.5031 3.95465 89.6009 3.85446 88.7297 4.0111C87.8585 4.16774 87.0558 4.57447 86.4188 5.18203L91.3271 4.29952C94.3797 4.81432 87.8048 1.90464 93.5949 5.3914Z" fill="#005EEC"/>
</g>
</svg>
