<svg width="26" height="24" viewBox="0 0 26 24" fill="none" xmlns="http://www.w3.org/2000/svg">
<path d="M17.6311 1.24737C17.964 1.35265 18.2969 1.45793 18.6298 1.59831C18.9627 1.73869 19.2955 1.87907 19.5951 2.05454C19.8947 2.19492 20.2276 2.37039 20.4939 2.58096C20.8268 2.79153 21.0932 3.00209 21.3928 3.21266C21.6591 3.42323 21.9254 3.66889 22.1917 3.94965C22.458 4.19531 22.691 4.44097 22.924 4.72173C23.1571 5.00248 23.3568 5.31833 23.5898 5.59909C23.7896 5.91494 23.9893 6.23079 24.1557 6.54664C24.3222 6.86249 24.4886 7.17834 24.6218 7.52929C24.7882 7.88023 24.9214 8.23118 25.0212 8.58212C25.1211 8.93307 25.221 9.28401 25.3208 9.63496C25.3874 10.021 25.454 10.3719 25.4873 10.7229C25.5539 11.1089 25.5872 11.495 25.5872 11.8459C25.5872 12.232 25.5872 12.5829 25.5539 12.9338C25.5539 13.3199 25.4873 13.6708 25.454 14.0569C25.3874 14.4429 25.3208 14.7939 25.221 15.1448C25.1211 15.4957 25.0212 15.8467 24.8881 16.1976C24.7882 16.5486 24.6218 16.8995 24.4886 17.2154C24.3222 17.5312 24.1557 17.8822 23.956 18.198C23.7896 18.5139 23.5898 18.7946 23.3568 19.1105C23.1571 19.3912 22.924 19.672 22.691 19.9527C22.458 20.2335 22.1917 20.4792 21.9254 20.7248C21.6591 20.9705 21.3928 21.2161 21.0932 21.4267C20.7935 21.6373 20.4939 21.8479 20.2276 22.0233L20.0612 22.1286C19.7949 22.269 19.5286 22.4094 19.2623 22.5497C18.9294 22.6901 18.5965 22.8305 18.2969 22.9358C17.964 23.0762 17.6311 23.1463 17.2649 23.2516C16.932 23.3218 16.5991 23.392 16.233 23.4622H16.1664H16.1331C15.8335 23.4973 15.5006 23.5324 15.1677 23.5324C14.8348 23.5324 14.4686 23.5324 14.1358 23.5324C13.8029 23.4973 13.4367 23.4622 13.0705 23.392C12.7376 23.3218 12.3714 23.2516 12.0386 23.1463C11.8388 23.1113 11.6391 23.0411 11.4061 22.9358C11.2063 22.8656 10.9733 22.7954 10.7736 22.6901C10.5406 22.6199 10.3408 22.5146 10.1411 22.4094C9.94135 22.3041 9.74162 22.1988 9.54189 22.0584C9.34215 21.9531 9.17571 21.8479 9.04255 21.7426C8.87611 21.6373 8.74295 21.5671 8.60979 21.4618L8.54322 21.3916C8.41006 21.2863 8.24362 21.1811 8.11046 21.0407C8.01059 20.9705 7.91073 20.9003 7.81086 20.795L2.61778 21.0407H2.21832L1.68569 21.0758H1.31952L0.587158 21.1109L0.953337 20.4441L1.11978 20.0931L1.3528 19.672L1.38609 19.6369L1.58583 19.2509L4.28223 14.3376C4.24894 14.1972 4.21565 14.0569 4.21565 13.9516L4.18236 13.6708L4.14908 13.4954V13.3901C4.11579 13.1795 4.11579 12.9689 4.0825 12.7935L4.11579 12.7584C4.0825 12.5829 4.0825 12.3723 4.0825 12.1618C4.0825 11.9161 4.0825 11.6704 4.11579 11.4248C4.11579 11.2142 4.14908 10.9685 4.18236 10.7229C4.21565 10.4772 4.24894 10.2316 4.28223 9.9859C4.34881 9.74024 4.3821 9.49458 4.44868 9.28401C4.54854 8.93307 4.64841 8.58212 4.78157 8.23118C4.91472 7.84514 5.04788 7.52929 5.18103 7.21344C5.34748 6.86249 5.51392 6.54664 5.71366 6.23079C5.8801 5.91494 6.07983 5.59909 6.31286 5.31833C6.51259 5.00248 6.74561 4.72173 6.97864 4.47606C7.24495 4.19531 7.47797 3.94965 7.74428 3.70398C8.01059 3.45832 8.27691 3.21266 8.57651 3.00209C8.87611 2.75643 9.17571 2.58096 9.47531 2.40549C9.77491 2.19492 10.0745 2.05454 10.4074 1.87907C10.707 1.73869 11.0399 1.59831 11.3728 1.49303C11.7057 1.35265 12.0386 1.24737 12.4047 1.17718C12.7376 1.0719 13.1038 1.00171 13.4367 0.966612C13.7696 0.931517 14.1358 0.896423 14.5019 0.896423V0.861328C14.8348 0.861328 15.201 0.861328 15.5339 0.896423C15.9001 0.931517 16.233 0.966612 16.5991 1.0368C16.932 1.0719 17.2982 1.17718 17.6311 1.24737ZM7.87744 18.4086H8.27691H8.41006H8.47664L8.64308 18.3735L8.77624 18.5139L8.84282 18.5841L8.94268 18.6542C9.07584 18.7946 9.209 18.935 9.34215 19.0403C9.47531 19.1807 9.60846 19.286 9.74162 19.3912C9.87477 19.4965 10.0412 19.6018 10.2077 19.7071C10.3408 19.8475 10.5073 19.9177 10.6404 20.0229C10.8069 20.0931 10.9733 20.1984 11.1398 20.2686C11.2396 20.3388 11.3728 20.409 11.4726 20.4441H11.5059L11.6058 20.5143C11.7722 20.5844 11.972 20.6546 12.1051 20.6897C12.2716 20.7599 12.438 20.795 12.6378 20.8652C12.9041 20.9354 13.2037 21.0056 13.47 21.0407C13.7363 21.1109 14.0026 21.146 14.3022 21.146C14.5685 21.1811 14.8348 21.1811 15.1344 21.1811C15.4007 21.146 15.6671 21.146 15.9334 21.1109C16.233 21.0758 16.4993 21.0056 16.7656 20.9354C17.0319 20.8652 17.2982 20.795 17.5645 20.6897C17.8308 20.6195 18.0971 20.5143 18.3302 20.3739C18.5965 20.2686 18.8295 20.1282 19.0958 19.9878C19.3288 19.8124 19.5619 19.672 19.7949 19.4965C20.0279 19.321 20.2276 19.1456 20.4607 18.935C20.6604 18.7595 20.8601 18.549 21.0599 18.3384C21.2263 18.1278 21.426 17.9173 21.5925 17.6716C21.7589 17.4259 21.9254 17.1803 22.0585 16.9346C22.1917 16.689 22.3248 16.4433 22.458 16.1625C22.5912 15.9169 22.691 15.6361 22.7909 15.3554C22.8908 15.1097 22.9573 14.8289 23.0572 14.5131C23.1238 14.2323 23.1904 13.9516 23.2236 13.6708C23.2569 13.3901 23.2902 13.0742 23.3235 12.7935C23.3568 12.5127 23.3568 12.1969 23.3235 11.9161C23.3235 11.6353 23.3235 11.3897 23.2902 11.1089L23.2569 11.0387C23.2236 10.758 23.1904 10.4772 23.1238 10.1614C23.0572 9.88062 22.9906 9.59986 22.8908 9.31911C22.7909 9.03835 22.691 8.79269 22.5912 8.51193C22.4913 8.26627 22.3581 7.98552 22.1917 7.73985C21.9254 7.21344 21.5925 6.72211 21.2263 6.30098C20.8934 5.87984 20.4939 5.4938 20.0945 5.14286L20.0279 5.10776C19.7949 4.93229 19.5619 4.75682 19.3288 4.58135C19.0958 4.44097 18.8628 4.30059 18.5965 4.16021C18.3635 4.05493 18.0971 3.91455 17.8308 3.80927C17.5978 3.73908 17.3315 3.6338 17.0319 3.56361C16.7656 3.45832 16.466 3.42323 16.233 3.35304C15.9334 3.31794 15.6671 3.28285 15.4007 3.24776C15.1011 3.24776 14.8348 3.24776 14.5685 3.24776C14.2689 3.24776 14.0026 3.28285 13.7363 3.31794C13.4367 3.35304 13.1704 3.42323 12.9041 3.45832C12.6378 3.52851 12.3714 3.6338 12.1051 3.70398C11.8388 3.80927 11.5725 3.91455 11.3395 4.05493C11.0732 4.16021 10.8402 4.30059 10.5738 4.44097C10.3408 4.58135 10.1078 4.75682 9.87477 4.93229C9.64175 5.10776 9.44202 5.28324 9.209 5.45871C9.00926 5.66928 8.80953 5.87984 8.64308 6.09041C8.44335 6.30098 8.24362 6.51155 8.07717 6.75721L8.01059 6.86249C7.87744 7.03796 7.74428 7.24853 7.61113 7.4591C7.47797 7.70476 7.34481 7.98552 7.21166 8.23118C7.0785 8.51193 6.97864 8.79269 6.87877 9.03835C6.7789 9.31911 6.71232 9.59986 6.61246 9.88062C6.57917 10.0912 6.54588 10.2667 6.51259 10.4421C6.4793 10.6176 6.44601 10.7931 6.41272 11.0036C6.37944 11.2142 6.37944 11.3897 6.34615 11.5652C6.34615 11.7406 6.34615 11.9512 6.34615 12.1267C6.31286 12.3021 6.34615 12.5127 6.34615 12.6882C6.34615 12.8637 6.37944 13.0742 6.37944 13.2497C6.41272 13.4252 6.44601 13.6006 6.4793 13.8112C6.51259 13.9867 6.54588 14.1622 6.57917 14.3376L6.61246 14.4429V14.478V14.5482L6.64575 14.7237L6.57917 14.864L6.54588 14.9342L6.51259 15.0044L6.4793 15.0395L6.1797 15.6361L5.91339 16.0923L5.54721 16.7942L4.54854 18.5841L7.6777 18.4437L7.84415 18.4086H7.87744Z" fill="white"/>
<path fill-rule="evenodd" clip-rule="evenodd" d="M11.4727 5.31824C9.67504 6.12541 9.10913 7.84504 9.44202 9.77523C9.64175 10.9333 10.0412 12.0915 10.7403 13.4952C11.4394 14.899 12.3382 16.2326 13.3036 17.2854C15.9001 20.093 20.0945 19.6017 18.6964 17.1451C17.9973 15.9869 17.5978 15.0394 17.5978 15.0394C17.5978 15.0394 17.2982 14.3726 16.699 14.7586C16.0665 15.1798 15.4673 15.636 15.1677 15.5658C14.7017 15.4956 11.0399 10.5473 12.438 9.77523C13.0705 9.45938 14.1691 9.07334 13.703 8.26617C13.3701 7.66957 12.1717 5.52881 12.1717 5.52881C12.1717 5.52881 11.9387 5.07258 11.4727 5.31824Z" fill="white"/>
</svg>
